<svg xmlns="http://www.w3.org/2000/svg" xmlns:xlink="http://www.w3.org/1999/xlink" version="1.1" x="0px" y="0px" viewBox="0 0 100 125" enable-background="new 0 0 100 100" xml:space="preserve" fill="#3B4965"><ellipse cx="50" cy="10.971" rx="20.694" ry="5.971"/><path d="M50.001,28.37c-11.431,0-20.694-2.674-20.694-5.973c0-0.033,0.016-0.067,0.018-0.102h-0.018v7.722h0.018  c0.191,3.25,9.365,5.869,20.676,5.869c11.31,0,20.484-2.619,20.676-5.869h0.019v-7.612C70.682,25.702,61.42,28.37,50.001,28.37z"/><path d="M70.694,22.39v-0.094h-0.017C70.681,22.328,70.694,22.359,70.694,22.39z"/><path d="M70.694,31.656v-0.094h-0.017C70.681,31.593,70.694,31.625,70.694,31.656z"/><path d="M70.694,40.922v-0.094h-0.017C70.681,40.86,70.694,40.891,70.694,40.922z"/><path d="M50.001,18.899c-11.431,0-20.694-2.674-20.694-5.974c0-0.035,0.016-0.067,0.018-0.104h-0.018v7.723h0.018  c0.191,3.249,9.365,5.871,20.676,5.871c11.31,0,20.484-2.622,20.676-5.871h0.019v-7.61C70.682,16.228,61.42,18.899,50.001,18.899z"/><path d="M70.694,12.919v-0.097h-0.017C70.681,12.856,70.694,12.888,70.694,12.919z"/><g><path d="M85.48,48.944H65.678c0.908,0.772,1.501,1.906,1.501,3.187v1.412h15.312c0.572,0,1.035,0.462,1.035,1.033   c0,0.572-0.463,1.035-1.035,1.035H67.179v0.806h15.312c0.572,0,1.035,0.464,1.035,1.033c0,0.571-0.463,1.036-1.035,1.036H67.179   v0.806h15.312c0.572,0,1.035,0.462,1.035,1.033c0,0.572-0.463,1.035-1.035,1.035H67.179v2.836H86.4v1.839H67.179v3.909H86.4v1.839   H67.179v2.798h15.312c0.572,0,1.035,0.465,1.035,1.036c0,0.572-0.463,1.034-1.035,1.034H67.179v0.805h15.312   c0.572,0,1.035,0.464,1.035,1.035c0,0.573-0.463,1.035-1.035,1.035H67.179v0.806h15.312c0.572,0,1.035,0.462,1.035,1.033   c0,0.572-0.463,1.034-1.035,1.034H67.179v4.639H85.48c1.523,0,2.76-1.239,2.76-2.761V51.704   C88.24,50.181,87.004,48.944,85.48,48.944z M76.953,68.833c-0.508,0-0.919-0.411-0.919-0.92c0-0.508,0.411-0.92,0.919-0.92   c0.51,0,0.92,0.412,0.92,0.92C77.873,68.422,77.463,68.833,76.953,68.833z M80.634,68.833c-0.507,0-0.92-0.411-0.92-0.92   c0-0.508,0.413-0.92,0.92-0.92c0.509,0,0.92,0.412,0.92,0.92C81.554,68.422,81.143,68.833,80.634,68.833z"/><path d="M62.978,52.002H37.023c-1.718,0-3.116,1.396-3.116,3.113v36.771c0,1.716,1.398,3.113,3.116,3.113h25.954   c1.719,0,3.114-1.397,3.114-3.113V55.115C66.092,53.398,64.696,52.002,62.978,52.002z M37.023,54.076h25.954   c0.574,0,1.04,0.467,1.04,1.039v14.102H35.984V55.115C35.984,54.543,36.451,54.076,37.023,54.076z M35.984,71.294h28.033v4.413   H35.984V71.294z M62.978,92.923H37.023c-0.572,0-1.039-0.466-1.039-1.036V77.782h28.033v14.104   C64.018,92.457,63.552,92.923,62.978,92.923z"/><path d="M40.396,59.528h19.208c0.644,0,1.168-0.522,1.168-1.17c0-0.645-0.524-1.167-1.168-1.167H40.396   c-0.646,0-1.169,0.522-1.169,1.167C39.228,59.006,39.751,59.528,40.396,59.528z"/><path d="M40.396,62.771h19.208c0.644,0,1.168-0.524,1.168-1.166c0-0.645-0.524-1.169-1.168-1.169H40.396   c-0.646,0-1.169,0.524-1.169,1.169C39.228,62.246,39.751,62.771,40.396,62.771z"/><path d="M40.396,66.017h19.208c0.644,0,1.168-0.524,1.168-1.169c0-0.646-0.524-1.168-1.168-1.168H40.396   c-0.646,0-1.169,0.522-1.169,1.168C39.228,65.492,39.751,66.017,40.396,66.017z"/><path d="M59.604,80.94H40.396c-0.646,0-1.169,0.524-1.169,1.17c0,0.645,0.523,1.167,1.169,1.167h19.208   c0.644,0,1.168-0.522,1.168-1.167C60.772,81.465,60.248,80.94,59.604,80.94z"/><path d="M59.604,84.186H40.396c-0.646,0-1.169,0.525-1.169,1.17s0.523,1.169,1.169,1.169h19.208c0.644,0,1.168-0.524,1.168-1.169   S60.248,84.186,59.604,84.186z"/><path d="M59.604,87.432H40.396c-0.646,0-1.169,0.524-1.169,1.167c0,0.645,0.523,1.168,1.169,1.168h19.208   c0.644,0,1.168-0.523,1.168-1.168C60.772,87.956,60.248,87.432,59.604,87.432z"/><path d="M34.406,50.656c0.771-0.453,1.658-0.733,2.617-0.733h11.325h3.303h11.326c0.96,0,1.846,0.28,2.616,0.733   c-0.121-0.239-0.306-0.5-0.538-0.775l-3.704-4.138c-1.021-1.054-1.149-1.443-2.526-1.487h-7.174h-3.303h-7.174   c-1.376,0.044-1.506,0.434-2.526,1.487l-3.704,4.138C34.712,50.156,34.529,50.417,34.406,50.656z"/><circle cx="57.506" cy="73.414" r="1.039"/><circle cx="53.353" cy="73.414" r="1.039"/><path d="M72.521,47.104h2.926H85.48c0.852,0,1.635,0.249,2.318,0.65c-0.108-0.211-0.271-0.443-0.478-0.688l-3.281-3.664   c-0.903-0.934-1.019-1.28-2.238-1.317h-6.354h-2.926h-6.355c-1.219,0.037-1.334,0.384-2.237,1.317l-1.608,1.796l1.706,1.905H72.521   z"/><path d="M14.52,48.944c-1.521,0-2.76,1.236-2.76,2.76v32.573c0,1.521,1.239,2.761,2.76,2.761h18.302v-4.639H17.509   c-0.571,0-1.035-0.462-1.035-1.034c0-0.571,0.464-1.033,1.035-1.033h15.312v-0.806H17.509c-0.571,0-1.035-0.462-1.035-1.035   c0-0.571,0.464-1.035,1.035-1.035h15.312v-0.805H17.509c-0.571,0-1.035-0.462-1.035-1.034c0-0.571,0.464-1.036,1.035-1.036h15.312   v-2.798H13.6v-1.839h19.222v-1.144c-0.053,0.012-0.101,0.032-0.154,0.032c-0.51,0-0.921-0.411-0.921-0.92   c0-0.508,0.411-0.92,0.921-0.92c0.054,0,0.102,0.024,0.154,0.032v-0.99H13.6v-1.839h19.222V61.36H17.509   c-0.571,0-1.035-0.463-1.035-1.035c0-0.571,0.464-1.033,1.035-1.033h15.312v-0.806H17.509c-0.571,0-1.035-0.465-1.035-1.036   c0-0.569,0.464-1.033,1.035-1.033h15.312v-0.806H17.509c-0.571,0-1.035-0.463-1.035-1.035c0-0.571,0.464-1.033,1.035-1.033h15.312   v-1.412c0-1.28,0.593-2.414,1.501-3.187H14.52z M28.986,66.993c0.507,0,0.92,0.412,0.92,0.92c0,0.509-0.413,0.92-0.92,0.92   c-0.508,0-0.92-0.411-0.92-0.92C28.066,67.405,28.479,66.993,28.986,66.993z"/><path d="M24.553,47.104h2.928h8.493l1.706-1.905l-1.606-1.796c-0.903-0.934-1.021-1.28-2.239-1.317H27.48h-2.928h-6.355   c-1.217,0.037-1.334,0.384-2.237,1.317l-3.28,3.664c-0.207,0.244-0.371,0.477-0.479,0.688c0.684-0.401,1.47-0.65,2.318-0.65H24.553   z"/></g><path d="M33.927,39.112c2.108,0.065,3.046,0.894,3.97,1.889c0.094,0.1,0.195,0.211,0.312,0.332l0.082,0.087l0.373,0.416  c0.621-0.315,1.377-0.521,2.42-0.553l0.091-0.001l17.742,0.001c1.043,0.032,1.802,0.238,2.423,0.555l0.451-0.504  c0.118-0.122,0.221-0.232,0.314-0.333c0.923-0.994,1.859-1.823,3.968-1.889l0.093-0.001h4.528V31.67  c-0.013,3.297-9.274,5.966-20.693,5.966c-11.431,0-20.694-2.673-20.694-5.972c0-0.034,0.016-0.068,0.018-0.102h-0.018v7.549  L33.927,39.112z"/></svg>